<svg width="57" height="85" viewBox="0 0 57 85" fill="none" xmlns="http://www.w3.org/2000/svg">
<path d="M45.1614 48.7521L29.1301 72.6584C29.0474 72.7819 28.9492 72.8798 28.8411 72.9467C28.7329 73.0135 28.6171 73.0479 28.5 73.0479C28.383 73.0479 28.2671 73.0135 28.159 72.9467C28.0508 72.8798 27.9526 72.7819 27.8699 72.6584L11.8386 48.7521C11.6715 48.5029 11.5776 48.1649 11.5776 47.8125C11.5776 47.4601 11.6715 47.1221 11.8386 46.8729C12.0058 46.6236 12.2324 46.4836 12.4688 46.4836C12.7051 46.4836 12.9318 46.6236 13.0989 46.8729L27.6094 68.5113V13.2812C27.6094 12.929 27.7032 12.5912 27.8702 12.3421C28.0373 12.0931 28.2638 11.9531 28.5 11.9531C28.7362 11.9531 28.9628 12.0931 29.1298 12.3421C29.2968 12.5912 29.3906 12.929 29.3906 13.2812V68.5113L43.9011 46.8729C44.0683 46.6236 44.2949 46.4836 44.5313 46.4836C44.7676 46.4836 44.9943 46.6236 45.1614 46.8729C45.3285 47.1221 45.4224 47.4601 45.4224 47.8125C45.4224 48.1649 45.3285 48.5029 45.1614 48.7521Z" fill="url(#paint0_linear_107_19)"/>
<defs>
<linearGradient id="paint0_linear_107_19" x1="11.5776" y1="11.9531" x2="57.2693" y2="13.3116" gradientUnits="userSpaceOnUse">
<stop stop-color="#3B90A3"/>
<stop offset="0.489583" stop-color="#337ED6" stop-opacity="0.755208"/>
<stop offset="1" stop-color="#1C23BF" stop-opacity="0.5"/>
</linearGradient>
</defs>
</svg>
