<svg width="26" height="20" viewBox="0 0 26 20" fill="none" xmlns="http://www.w3.org/2000/svg">
<path d="M3 20C2.3125 20 1.72417 19.7554 1.235 19.2663C0.745 18.7763 0.5 18.1875 0.5 17.5V2.5C0.5 1.8125 0.745 1.22417 1.235 0.735C1.72417 0.245 2.3125 0 3 0H23C23.6875 0 24.2763 0.245 24.7663 0.735C25.2554 1.22417 25.5 1.8125 25.5 2.5V17.5C25.5 18.1875 25.2554 18.7763 24.7663 19.2663C24.2763 19.7554 23.6875 20 23 20H3ZM13 11.0312C13.1042 11.0312 13.2133 11.0154 13.3275 10.9837C13.4425 10.9529 13.5521 10.9062 13.6562 10.8438L22.5 5.3125C22.6667 5.20833 22.7917 5.07833 22.875 4.9225C22.9583 4.76583 23 4.59375 23 4.40625C23 3.98958 22.8229 3.67708 22.4688 3.46875C22.1146 3.26042 21.75 3.27083 21.375 3.5L13 8.75L4.625 3.5C4.25 3.27083 3.88542 3.26542 3.53125 3.48375C3.17708 3.70292 3 4.01042 3 4.40625C3 4.61458 3.04167 4.79667 3.125 4.9525C3.20833 5.10917 3.33333 5.22917 3.5 5.3125L12.3438 10.8438C12.4479 10.9062 12.5575 10.9529 12.6725 10.9837C12.7867 11.0154 12.8958 11.0312 13 11.0312Z" fill="white"/>
</svg>
