<svg width="24" height="23" viewBox="0 0 24 23" fill="none" xmlns="http://www.w3.org/2000/svg">
<path d="M0.661398 11.5947C0.661398 11.3387 0.746732 11.1147 0.928065 10.9333C1.1094 10.7627 1.3334 10.6773 1.56807 10.6773H3.74407C3.9894 10.6773 4.19207 10.7627 4.36273 10.944C4.52273 11.1253 4.60807 11.3387 4.60807 11.5947C4.60807 11.8507 4.5334 12.064 4.3734 12.2453C4.2134 12.4267 4.00007 12.512 3.75473 12.512H1.57873C1.3334 12.512 1.12007 12.4267 0.938732 12.2453C0.850369 12.1617 0.780152 12.0608 0.732442 11.9488C0.684733 11.8369 0.660551 11.7163 0.661398 11.5947ZM3.71207 18.9867C3.71207 18.7413 3.7974 18.528 3.9574 18.336L5.5254 16.8107C5.6854 16.64 5.89873 16.5653 6.15473 16.5653C6.41073 16.5653 6.62407 16.6507 6.79473 16.8107C6.9654 16.9707 7.05073 17.1733 7.05073 17.4187C7.05073 17.6747 6.9654 17.9093 6.79473 18.1013L5.28007 19.616C4.84273 19.9573 4.4054 19.9573 3.96807 19.616C3.88493 19.534 3.81936 19.4359 3.77535 19.3277C3.73134 19.2195 3.70981 19.1034 3.71207 18.9867ZM3.71207 4.224C3.71207 3.97866 3.7974 3.76533 3.9574 3.57333C4.17073 3.392 4.39473 3.30666 4.64007 3.30666C4.87473 3.30666 5.08806 3.392 5.2694 3.56266L6.79473 5.13066C6.9654 5.29066 7.05073 5.504 7.05073 5.76C7.05073 6.016 6.9654 6.22933 6.79473 6.4C6.62407 6.57066 6.41073 6.656 6.15473 6.656C5.89873 6.656 5.6854 6.57066 5.5254 6.4L3.96807 4.87466C3.88381 4.78901 3.81771 4.68724 3.77372 4.57543C3.72973 4.46363 3.70876 4.3441 3.71207 4.224ZM6.43207 11.5947C6.43207 10.6027 6.6774 9.67466 7.17873 8.82133C7.68007 7.968 8.35207 7.28533 9.21607 6.784C10.0801 6.28266 10.9974 6.03733 11.9894 6.03733C12.7361 6.03733 13.4507 6.18666 14.1441 6.48533C14.8267 6.784 15.4241 7.17866 15.9147 7.68C16.4161 8.18133 16.8107 8.768 17.0987 9.45066C17.3867 10.1333 17.5361 10.8587 17.5361 11.6053C17.5361 12.608 17.2907 13.536 16.7894 14.3893C16.2881 15.2427 15.6161 15.9147 14.7627 16.416C13.9094 16.9173 12.9814 17.1627 11.9787 17.1627C10.9761 17.1627 10.0481 16.9173 9.19473 16.416C8.3414 15.9147 7.6694 15.2427 7.16807 14.3893C6.68807 13.5253 6.43207 12.5973 6.43207 11.5947ZM8.2454 11.5947C8.2454 12.64 8.60807 13.5253 9.34407 14.2613C10.0694 14.9973 10.9547 15.3707 12.0001 15.3707C13.0454 15.3707 13.9307 14.9973 14.6667 14.2613C15.4027 13.5253 15.7761 12.64 15.7761 11.5947C15.7761 10.5707 15.4027 9.696 14.6667 8.96C13.9307 8.23466 13.0454 7.872 12.0001 7.872C10.9654 7.872 10.0801 8.23466 9.35473 8.96C8.60807 9.696 8.2454 10.5707 8.2454 11.5947ZM11.0827 19.8933C11.0827 19.6373 11.1681 19.424 11.3494 19.2533C11.5307 19.0827 11.7441 18.9973 11.9894 18.9973C12.2454 18.9973 12.4694 19.0827 12.6401 19.2533C12.8107 19.424 12.8961 19.6373 12.8961 19.8933V22.016C12.8961 22.272 12.8107 22.496 12.6294 22.6773C12.4481 22.8587 12.2347 22.944 11.9894 22.944C11.7441 22.944 11.5201 22.8587 11.3494 22.6773C11.2623 22.591 11.1937 22.4879 11.1479 22.3742C11.102 22.2604 11.0799 22.1386 11.0827 22.016V19.8933ZM11.0827 3.36V1.184C11.0827 0.938663 11.1681 0.72533 11.3494 0.543996C11.5307 0.362663 11.7441 0.266663 12.0001 0.266663C12.2561 0.266663 12.4587 0.351996 12.6401 0.533329C12.8214 0.714663 12.9067 0.927996 12.9067 1.17333V3.36C12.9067 3.60533 12.8214 3.808 12.6401 3.97866C12.4587 4.14933 12.2454 4.224 12.0001 4.224C11.7547 4.224 11.5307 4.13866 11.3601 3.97866C11.1894 3.81866 11.0827 3.60533 11.0827 3.36ZM16.9707 17.4187C16.9707 17.1733 17.0561 16.9707 17.2161 16.8213C17.3761 16.6507 17.5787 16.576 17.8134 16.576C18.0694 16.576 18.2827 16.6613 18.4534 16.8213L20.0107 18.3467C20.1814 18.528 20.2667 18.752 20.2667 18.9973C20.2667 19.2427 20.1814 19.456 20.0107 19.6267C19.5841 19.9573 19.1574 19.9573 18.7307 19.6267L17.2161 18.112C17.0525 17.9185 16.9652 17.672 16.9707 17.4187ZM16.9707 5.77066C16.9707 5.504 17.0561 5.29066 17.2161 5.14133L18.7307 3.57333C18.8988 3.40869 19.1248 3.31674 19.3601 3.31733C19.6161 3.31733 19.8294 3.40266 20.0001 3.584C20.1814 3.76533 20.2667 3.97866 20.2667 4.224C20.2667 4.49066 20.1814 4.71466 20.0107 4.88533L18.4534 6.41066C18.2614 6.58133 18.0481 6.66666 17.8134 6.66666C17.5681 6.66666 17.3761 6.58133 17.2161 6.41066C17.0561 6.24 16.9707 6.02666 16.9707 5.77066ZM19.3814 11.5947C19.3814 11.3387 19.4667 11.1253 19.6374 10.9333C19.8081 10.7627 20.0107 10.6773 20.2454 10.6773H22.4001C22.6454 10.6773 22.8587 10.7733 23.0401 10.9547C23.2214 11.136 23.3174 11.3493 23.3174 11.5947C23.3174 11.84 23.2214 12.0533 23.0401 12.2347C22.8587 12.416 22.6454 12.5013 22.4001 12.5013H20.2454C20.0001 12.5013 19.7867 12.416 19.6267 12.2347C19.4667 12.0533 19.3814 11.8507 19.3814 11.5947Z" fill="white"/>
</svg>
